<svg width="220" height="55" viewBox="0 0 220 55" fill="none" xmlns="http://www.w3.org/2000/svg">
<rect width="220" height="55" fill="#C8A35F"/>
<path d="M65.4406 33H63.4719V23.2188H58.4641V33H56.4953V21.625H65.4406V33ZM78.5094 27.6094C78.5094 28.724 78.3167 29.7031 77.9312 30.5469C77.5458 31.3854 76.9937 32.0312 76.275 32.4844C75.5615 32.9323 74.7385 33.1562 73.8062 33.1562C72.8844 33.1562 72.0615 32.9323 71.3375 32.4844C70.6187 32.0312 70.0615 31.388 69.6656 30.5547C69.275 29.7214 69.0771 28.7604 69.0719 27.6719V27.0312C69.0719 25.9219 69.2672 24.9427 69.6578 24.0938C70.0536 23.2448 70.6083 22.5964 71.3219 22.1484C72.0406 21.6953 72.8635 21.4688 73.7906 21.4688C74.7177 21.4688 75.538 21.6927 76.2516 22.1406C76.9703 22.5833 77.525 23.224 77.9156 24.0625C78.3062 24.8958 78.5042 25.8672 78.5094 26.9766V27.6094ZM76.5328 27.0156C76.5328 25.7552 76.2932 24.7891 75.8141 24.1172C75.3401 23.4453 74.6656 23.1094 73.7906 23.1094C72.9365 23.1094 72.2672 23.4453 71.7828 24.1172C71.3036 24.7839 71.0589 25.7292 71.0484 26.9531V27.6094C71.0484 28.8594 71.2906 29.8255 71.775 30.5078C72.2646 31.1901 72.9417 31.5312 73.8062 31.5312C74.6812 31.5312 75.3531 31.1979 75.8219 30.5312C76.2958 29.8646 76.5328 28.8906 76.5328 27.6094V27.0156ZM92.2734 35.7969H90.3984V33H82.9062V35.7969H81L80.9375 31.4219H81.8516C82.3047 30.9844 82.6667 30.349 82.9375 29.5156C83.2083 28.6771 83.3828 27.7292 83.4609 26.6719L83.7578 21.625H90.9297V31.4219H92.375L92.2734 35.7969ZM84.0859 31.4219H88.9609V23.2188H85.6406L85.4531 26.4219C85.3125 28.5625 84.8568 30.2292 84.0859 31.4219ZM97.4359 28.7734V33H95.4594V21.625H99.8109C101.082 21.625 102.09 21.9557 102.834 22.6172C103.584 23.2786 103.959 24.1536 103.959 25.2422C103.959 26.3568 103.592 27.224 102.858 27.8438C102.129 28.4635 101.105 28.7734 99.7875 28.7734H97.4359ZM97.4359 27.1875H99.8109C100.514 27.1875 101.051 27.0234 101.42 26.6953C101.79 26.362 101.975 25.8828 101.975 25.2578C101.975 24.6432 101.787 24.1536 101.412 23.7891C101.037 23.4193 100.522 23.2292 99.8656 23.2188H97.4359V27.1875ZM116.372 27.6094C116.372 28.724 116.179 29.7031 115.794 30.5469C115.408 31.3854 114.856 32.0312 114.138 32.4844C113.424 32.9323 112.601 33.1562 111.669 33.1562C110.747 33.1562 109.924 32.9323 109.2 32.4844C108.481 32.0312 107.924 31.388 107.528 30.5547C107.138 29.7214 106.94 28.7604 106.934 27.6719V27.0312C106.934 25.9219 107.13 24.9427 107.52 24.0938C107.916 23.2448 108.471 22.5964 109.184 22.1484C109.903 21.6953 110.726 21.4688 111.653 21.4688C112.58 21.4688 113.401 21.6927 114.114 22.1406C114.833 22.5833 115.388 23.224 115.778 24.0625C116.169 24.8958 116.367 25.8672 116.372 26.9766V27.6094ZM114.395 27.0156C114.395 25.7552 114.156 24.7891 113.677 24.1172C113.203 23.4453 112.528 23.1094 111.653 23.1094C110.799 23.1094 110.13 23.4453 109.645 24.1172C109.166 24.7839 108.921 25.7292 108.911 26.9531V27.6094C108.911 28.8594 109.153 29.8255 109.638 30.5078C110.127 31.1901 110.804 31.5312 111.669 31.5312C112.544 31.5312 113.216 31.1979 113.684 30.5312C114.158 29.8646 114.395 28.8906 114.395 27.6094V27.0156ZM127.128 23.2188H121.886V25.9766H124.214C125.047 25.9766 125.774 26.1198 126.394 26.4062C127.014 26.6927 127.485 27.099 127.808 27.625C128.131 28.151 128.292 28.7604 128.292 29.4531C128.292 30.5156 127.93 31.3698 127.206 32.0156C126.488 32.6615 125.506 32.9896 124.261 33H119.909V21.625H127.128V23.2188ZM121.886 27.5625V31.4219H124.206C124.873 31.4219 125.391 31.2422 125.761 30.8828C126.136 30.5182 126.323 30.0365 126.323 29.4375C126.323 28.8646 126.141 28.4115 125.777 28.0781C125.412 27.7448 124.907 27.5729 124.261 27.5625H121.886ZM140.634 33H138.666V27.9453H133.58V33H131.603V21.625H133.58V26.3594H138.666V21.625H140.634V33ZM151.227 27.9219H146.555V31.4219H152.016V33H144.578V21.625H151.961V23.2188H146.555V26.3594H151.227V27.9219ZM161.873 27.9219H157.202V31.4219H162.663V33H155.225V21.625H162.608V23.2188H157.202V26.3594H161.873V27.9219Z" fill="white"/>
</svg>
